<svg width="24" height="24" viewBox="0 0 24 24" fill="none" xmlns="http://www.w3.org/2000/svg" data-reactroot="">
	<path stroke-linejoin="round" stroke-linecap="round" stroke-width="1" stroke="#221b38" fill="none" d="M3 9.37H6L9 13.56L9.11 13.67C10.69 15.32 13.32 15.32 14.89 13.67L15 13.56L18 9.37H21L19.4 21.93H4.6L3 9.37Z"></path>
	<path stroke-linejoin="round" stroke-width="1" stroke="#221b38" d="M19.8 18.79H4.20001"></path>
	<path stroke-linejoin="round" stroke-linecap="round" stroke-width="1" stroke="#221b38" fill="none" d="M10.51 14.62L7 2.88001L9.9 2.07001L13.64 14.55C12.65 15 11.51 15.02 10.51 14.62Z"></path>
	<path stroke-linejoin="round" stroke-linecap="round" stroke-width="1" stroke="#221b38" fill="none" d="M13.64 14.56L11.9 8.73001L13.59 2.07001L16.49 2.88001L13.8 14.48C13.74 14.51 13.69 14.53 13.64 14.56Z"></path>
	<path stroke-linejoin="round" stroke-linecap="round" stroke-width="1" stroke="#221b38" fill="none" d="M15.95 5.17999L19.5 5.70999L19 9.36999H18L15 13.56L14.89 13.67C14.56 14.01 14.19 14.28 13.79 14.48L15.95 5.17999Z"></path>
	<path stroke-linejoin="round" stroke-linecap="round" stroke-width="1" stroke="#221b38" fill="none" d="M7.52997 4.64999L3.40997 6.13999L4.49997 9.36999H5.99997L8.99997 13.56L9.10997 13.67C9.51997 14.09 9.99997 14.41 10.51 14.62L7.52997 4.64999Z"></path>
</svg>